<svg width="23" height="23" viewBox="0 0 23 23" fill="none" xmlns="http://www.w3.org/2000/svg">
<path d="M4.77554 6.89713C5.93359 6.89713 6.87238 5.95834 6.87238 4.80029C6.87238 3.64224 5.93359 2.70346 4.77554 2.70346C3.61749 2.70346 2.67871 3.64224 2.67871 4.80029C2.67871 5.95834 3.61749 6.89713 4.77554 6.89713Z" fill="#E5E5E5" fill-opacity="0.7"/>
<path d="M8.8519 8.48605V20.1193H12.4639V14.3664C12.4639 12.8484 12.7494 11.3783 14.6316 11.3783C16.4879 11.3783 16.5109 13.1138 16.5109 14.4622V20.1202H20.1248V13.7406C20.1248 10.6068 19.4501 8.19855 15.7874 8.19855C14.0288 8.19855 12.8501 9.16359 12.368 10.0769H12.3192V8.48605H8.8519ZM2.96582 8.48605H6.58353V20.1193H2.96582V8.48605Z" fill="#E5E5E5" fill-opacity="0.7"/>
</svg>
