<svg width="23" height="23" viewBox="0 0 23 23" fill="none" xmlns="http://www.w3.org/2000/svg">
<path d="M8.5675 17.9256C9.78157 17.9332 10.9851 17.6997 12.1082 17.2386C13.2313 16.7775 14.2517 16.0981 15.1102 15.2396C15.9687 14.3811 16.6482 13.3607 17.1093 12.2375C17.5704 11.1144 17.8039 9.91089 17.7963 8.69682V8.27276C18.4256 7.81167 18.9703 7.24507 19.4062 6.59807C18.8137 6.85725 18.1866 7.02914 17.5447 7.10839C18.2253 6.70285 18.7359 6.06452 18.9822 5.31151C18.3479 5.69205 17.6524 5.95956 16.9266 6.10214C16.4378 5.58131 15.7909 5.23608 15.0862 5.11988C14.3814 5.00368 13.658 5.12298 13.0279 5.45932C12.3977 5.79567 11.896 6.3303 11.6003 6.9805C11.3047 7.63071 11.2315 8.36023 11.3922 9.0562C10.1028 8.99291 8.84114 8.65874 7.68944 8.07547C6.53775 7.49219 5.52182 6.67288 4.70781 5.67089C4.29735 6.38329 4.17294 7.22506 4.35976 8.02574C4.54659 8.82643 5.0307 9.52621 5.71406 9.98339C5.20994 9.96394 4.71748 9.82605 4.27656 9.58089V9.61682C4.27208 10.3613 4.52289 11.0849 4.98719 11.6669C5.45149 12.2489 6.10123 12.6542 6.82812 12.8153C6.35924 12.9414 5.86808 12.961 5.39062 12.8728C5.60106 13.5077 6.00277 14.062 6.54066 14.4596C7.07854 14.8572 7.72627 15.0787 8.395 15.0937C7.25162 16.0141 5.83057 16.5207 4.36281 16.5312C4.10547 16.5237 3.84872 16.5022 3.59375 16.4665C5.07937 17.413 6.80599 17.9121 8.5675 17.904" fill="#E5E5E5" fill-opacity="0.7"/>
</svg>
