<svg width="77" height="34" viewBox="0 0 77 34" fill="none" xmlns="http://www.w3.org/2000/svg">
<path d="M28.5504 24.2148C24.8121 24.2148 22.9429 22.1631 22.9429 18.0596C22.9429 16.0186 23.4514 14.4609 24.4683 13.3867C25.4852 12.3053 26.9426 11.7646 28.8404 11.7646C30.2297 11.7646 31.4758 12.0368 32.5787 12.5811L31.6119 15.1162C31.0963 14.9085 30.6164 14.7402 30.1724 14.6113C29.7284 14.4753 29.2844 14.4072 28.8404 14.4072C27.136 14.4072 26.2838 15.6175 26.2838 18.0381C26.2838 20.387 27.136 21.5615 28.8404 21.5615C29.4706 21.5615 30.0543 21.4792 30.5914 21.3145C31.1285 21.1426 31.6656 20.8776 32.2027 20.5195V23.3232C31.6727 23.6598 31.1356 23.8926 30.5914 24.0215C30.0543 24.1504 29.3739 24.2148 28.5504 24.2148ZM42.6226 24L41.9888 22.3672H41.9029C41.3515 23.0618 40.7821 23.5452 40.1949 23.8174C39.6148 24.0824 38.8557 24.2148 37.9175 24.2148C36.7645 24.2148 35.855 23.8854 35.189 23.2266C34.5302 22.5677 34.2007 21.6296 34.2007 20.4121C34.2007 19.1374 34.6448 18.1992 35.5328 17.5977C36.428 16.9889 37.7743 16.6523 39.5718 16.5879L41.6558 16.5234V15.9971C41.6558 14.7796 41.0328 14.1709 39.7867 14.1709C38.827 14.1709 37.6991 14.4609 36.4029 15.041L35.3179 12.8281C36.7001 12.1048 38.2326 11.7432 39.9156 11.7432C41.5269 11.7432 42.7623 12.0941 43.6216 12.7959C44.481 13.4977 44.9107 14.5648 44.9107 15.9971V24H42.6226ZM41.6558 18.4355L40.3882 18.4785C39.4358 18.5072 38.7268 18.679 38.2613 18.9941C37.7958 19.3092 37.563 19.7891 37.563 20.4336C37.563 21.3574 38.093 21.8193 39.1529 21.8193C39.912 21.8193 40.5172 21.6009 40.9683 21.1641C41.4267 20.7272 41.6558 20.1471 41.6558 19.4238V18.4355ZM56.6734 20.4336C56.6734 21.6654 56.2437 22.6035 55.3843 23.248C54.5321 23.8926 53.2538 24.2148 51.5494 24.2148C50.6757 24.2148 49.9309 24.154 49.315 24.0322C48.6991 23.9176 48.1226 23.7458 47.5855 23.5166V20.8096C48.1942 21.096 48.8782 21.3359 49.6373 21.5293C50.4035 21.7227 51.0767 21.8193 51.6568 21.8193C52.8456 21.8193 53.44 21.4756 53.44 20.7881C53.44 20.5303 53.3612 20.3226 53.2037 20.165C53.0461 20.0003 52.774 19.8177 52.3873 19.6172C52.0005 19.4095 51.4849 19.1696 50.8404 18.8975C49.9166 18.5107 49.2362 18.1527 48.7994 17.8232C48.3697 17.4938 48.0546 17.1178 47.8541 16.6953C47.6607 16.2656 47.564 15.7393 47.564 15.1162C47.564 14.0492 47.9758 13.2256 48.7994 12.6455C49.6301 12.0583 50.8046 11.7646 52.3228 11.7646C53.7694 11.7646 55.1767 12.0798 56.5445 12.71L55.5562 15.0732C54.9547 14.8154 54.3925 14.6042 53.8697 14.4395C53.3469 14.2747 52.8134 14.1924 52.2691 14.1924C51.3023 14.1924 50.8189 14.4538 50.8189 14.9766C50.8189 15.2702 50.9729 15.5244 51.2808 15.7393C51.5959 15.9541 52.2798 16.2728 53.3326 16.6953C54.2707 17.0749 54.9582 17.4294 55.3951 17.7588C55.8319 18.0882 56.1542 18.4678 56.3619 18.8975C56.5696 19.3271 56.6734 19.8392 56.6734 20.4336ZM66.857 24L66.2232 22.3672H66.1373C65.5858 23.0618 65.0165 23.5452 64.4293 23.8174C63.8492 24.0824 63.0901 24.2148 62.1519 24.2148C60.9989 24.2148 60.0894 23.8854 59.4234 23.2266C58.7645 22.5677 58.4351 21.6296 58.4351 20.4121C58.4351 19.1374 58.8791 18.1992 59.7672 17.5977C60.6623 16.9889 62.0087 16.6523 63.8062 16.5879L65.8902 16.5234V15.9971C65.8902 14.7796 65.2672 14.1709 64.0211 14.1709C63.0614 14.1709 61.9335 14.4609 60.6373 15.041L59.5523 12.8281C60.9345 12.1048 62.467 11.7432 64.15 11.7432C65.7613 11.7432 66.9966 12.0941 67.856 12.7959C68.7154 13.4977 69.1451 14.5648 69.1451 15.9971V24H66.857ZM65.8902 18.4355L64.6226 18.4785C63.6701 18.5072 62.9612 18.679 62.4957 18.9941C62.0302 19.3092 61.7974 19.7891 61.7974 20.4336C61.7974 21.3574 62.3274 21.8193 63.3873 21.8193C64.1464 21.8193 64.7515 21.6009 65.2027 21.1641C65.661 20.7272 65.8902 20.1471 65.8902 19.4238V18.4355Z" fill="#3D405B"/>
<path d="M9.24799 14.248H16.9547V20.4133C16.9547 24.6696 13.5043 28.12 9.24799 28.12V14.248Z" fill="#F2CC8F"/>
<path d="M7.70667 18.872H-1.43051e-06V12.7067C-1.43051e-06 8.4504 3.45039 5.00001 7.70667 5.00001V18.872Z" fill="#F2CC8F"/>
<circle cx="13.1013" cy="8.85333" r="3.85333" fill="#3D405B"/>
<circle cx="3.85333" cy="24.2667" r="3.85333" fill="#3D405B"/>
</svg>
