<svg width="86" height="34" viewBox="0 0 86 34" fill="none" xmlns="http://www.w3.org/2000/svg">
<path d="M36.9375 27.2441C32.6895 27.2441 30.5654 24.9126 30.5654 20.2495C30.5654 17.9302 31.1432 16.1602 32.2988 14.9395C33.4544 13.7106 35.1105 13.0962 37.2671 13.0962C38.8459 13.0962 40.2619 13.4054 41.5151 14.0239L40.4165 16.9048C39.8306 16.6688 39.2853 16.4775 38.7808 16.3311C38.2762 16.1764 37.7716 16.0991 37.2671 16.0991C35.3302 16.0991 34.3618 17.4744 34.3618 20.2251C34.3618 22.8944 35.3302 24.229 37.2671 24.229C37.9832 24.229 38.6465 24.1354 39.2568 23.9482C39.8672 23.7529 40.4775 23.4518 41.0879 23.0449V26.231C40.4857 26.6134 39.8753 26.8779 39.2568 27.0244C38.6465 27.1709 37.8734 27.2441 36.9375 27.2441ZM52.9287 27L52.2085 25.1445H52.1108C51.4842 25.9339 50.8372 26.4832 50.1699 26.7925C49.5107 27.0936 48.6481 27.2441 47.582 27.2441C46.2718 27.2441 45.2383 26.8698 44.4814 26.1211C43.7327 25.3724 43.3584 24.3063 43.3584 22.9229C43.3584 21.4743 43.863 20.4082 44.8721 19.7246C45.8893 19.0329 47.4193 18.6504 49.4619 18.5771L51.8301 18.5039V17.9058C51.8301 16.5223 51.1221 15.8306 49.7061 15.8306C48.6156 15.8306 47.3338 16.1602 45.8608 16.8193L44.6279 14.3047C46.1986 13.4827 47.9401 13.0718 49.8525 13.0718C51.6836 13.0718 53.0874 13.4705 54.064 14.2681C55.0405 15.0656 55.5288 16.2782 55.5288 17.9058V27H52.9287ZM51.8301 20.6768L50.3896 20.7256C49.3073 20.7581 48.5016 20.9535 47.9727 21.3115C47.4437 21.6696 47.1792 22.2148 47.1792 22.9473C47.1792 23.9971 47.7814 24.522 48.9858 24.522C49.8485 24.522 50.5361 24.2738 51.0488 23.7773C51.5697 23.2809 51.8301 22.6217 51.8301 21.7998V20.6768ZM68.8955 22.9473C68.8955 24.347 68.4072 25.4131 67.4307 26.1455C66.4622 26.8779 65.0096 27.2441 63.0728 27.2441C62.0799 27.2441 61.2336 27.175 60.5337 27.0366C59.8338 26.9064 59.1787 26.7111 58.5684 26.4507V23.3745C59.2601 23.7 60.0373 23.9727 60.8999 24.1924C61.7707 24.4121 62.5356 24.522 63.1948 24.522C64.5457 24.522 65.2212 24.1313 65.2212 23.3501C65.2212 23.0571 65.1317 22.8211 64.9526 22.6421C64.7736 22.4549 64.4644 22.2474 64.0249 22.0195C63.5854 21.7835 62.9995 21.5109 62.2671 21.2017C61.2173 20.7622 60.4442 20.3553 59.9478 19.981C59.4595 19.6066 59.1014 19.1794 58.8735 18.6992C58.6538 18.2109 58.5439 17.6128 58.5439 16.9048C58.5439 15.6922 59.0119 14.7563 59.9478 14.0972C60.8918 13.4299 62.2264 13.0962 63.9517 13.0962C65.5955 13.0962 67.1947 13.4543 68.749 14.1704L67.626 16.856C66.9424 16.563 66.3035 16.3229 65.7095 16.1357C65.1154 15.9486 64.5091 15.855 63.8906 15.855C62.792 15.855 62.2427 16.152 62.2427 16.7461C62.2427 17.0798 62.4176 17.3687 62.7676 17.6128C63.1257 17.8569 63.9028 18.2191 65.0991 18.6992C66.1652 19.1305 66.9465 19.5334 67.4429 19.9077C67.9393 20.2821 68.3055 20.7134 68.5415 21.2017C68.7775 21.6899 68.8955 22.2718 68.8955 22.9473ZM80.4678 27L79.7476 25.1445H79.6499C79.0233 25.9339 78.3763 26.4832 77.709 26.7925C77.0498 27.0936 76.1872 27.2441 75.1211 27.2441C73.8109 27.2441 72.7773 26.8698 72.0205 26.1211C71.2718 25.3724 70.8975 24.3063 70.8975 22.9229C70.8975 21.4743 71.402 20.4082 72.4111 19.7246C73.4284 19.0329 74.9583 18.6504 77.001 18.5771L79.3691 18.5039V17.9058C79.3691 16.5223 78.6611 15.8306 77.2451 15.8306C76.1546 15.8306 74.8729 16.1602 73.3999 16.8193L72.167 14.3047C73.7376 13.4827 75.4792 13.0718 77.3916 13.0718C79.2227 13.0718 80.6265 13.4705 81.603 14.2681C82.5796 15.0656 83.0679 16.2782 83.0679 17.9058V27H80.4678ZM79.3691 20.6768L77.9287 20.7256C76.8464 20.7581 76.0407 20.9535 75.5117 21.3115C74.9827 21.6696 74.7183 22.2148 74.7183 22.9473C74.7183 23.9971 75.3205 24.522 76.5249 24.522C77.3875 24.522 78.0752 24.2738 78.5879 23.7773C79.1087 23.2809 79.3691 22.6217 79.3691 21.7998V20.6768Z" fill="white"/>
<path d="M11.6958 13.6963H21.4425V21.4937C21.4425 26.8766 17.0787 31.2403 11.6958 31.2403V13.6963Z" fill="#F2CC8F"/>
<path d="M9.74658 19.5442H-8.39233e-05V11.7468C-8.39233e-05 6.36389 4.36365 2.00016 9.74658 2.00016V19.5442Z" fill="#F2CC8F"/>
<circle cx="16.5691" cy="6.87358" r="4.87333" fill="white"/>
<circle cx="4.87333" cy="26.3668" r="4.87333" fill="white"/>
</svg>
